<svg width="167" height="64" viewBox="0 0 167 64" fill="none" xmlns="http://www.w3.org/2000/svg">
<path d="M82.672 23.048L91.36 12.416H83.008V8.96H96.088V11.912L87.808 22.544H96.184V26H82.672V23.048ZM98.632 26V8.96H102.568V26H98.632ZM105.827 26V8.96H113.099C113.915 8.96 114.659 9.128 115.331 9.464C116.019 9.784 116.611 10.224 117.107 10.784C117.603 11.328 117.987 11.944 118.259 12.632C118.531 13.32 118.667 14.024 118.667 14.744C118.667 15.72 118.435 16.648 117.971 17.528C117.523 18.408 116.891 19.128 116.075 19.688C115.275 20.232 114.323 20.504 113.219 20.504H109.763V26H105.827ZM109.763 17.072H112.979C113.283 17.072 113.563 16.984 113.819 16.808C114.075 16.632 114.283 16.368 114.443 16.016C114.603 15.664 114.683 15.232 114.683 14.72C114.683 14.192 114.587 13.76 114.395 13.424C114.219 13.072 113.987 12.816 113.699 12.656C113.427 12.496 113.139 12.416 112.835 12.416H109.763V17.072ZM120.78 26V8.96H124.716V26H120.78ZM131.912 16.256V26H127.976V8.96H131.096L138.992 18.992V8.96H142.928V26H139.712L131.912 16.256ZM91.12 54.12C89.952 54.12 88.88 53.872 87.904 53.376C86.928 52.88 86.08 52.216 85.36 51.384C84.64 50.552 84.08 49.624 83.68 48.6C83.296 47.576 83.104 46.536 83.104 45.48C83.104 44.36 83.296 43.288 83.68 42.264C84.064 41.224 84.6 40.296 85.288 39.48C85.992 38.664 86.816 38.024 87.76 37.56C88.72 37.08 89.768 36.84 90.904 36.84C92.632 36.84 94.008 37.192 95.032 37.896C96.072 38.584 96.864 39.472 97.408 40.56L96.688 40.92C96.08 39.752 95.28 38.912 94.288 38.4C93.296 37.888 92.16 37.632 90.88 37.632C89.824 37.632 88.864 37.856 88 38.304C87.152 38.736 86.424 39.328 85.816 40.08C85.208 40.832 84.744 41.68 84.424 42.624C84.104 43.552 83.944 44.504 83.944 45.48C83.944 46.52 84.128 47.512 84.496 48.456C84.864 49.4 85.376 50.24 86.032 50.976C86.704 51.712 87.472 52.288 88.336 52.704C89.216 53.12 90.16 53.328 91.168 53.328C92.304 53.328 93.384 53.056 94.408 52.512C95.432 51.952 96.416 51.072 97.36 49.872V50.88C95.6 53.04 93.52 54.12 91.12 54.12ZM97.072 46.536H93.136V45.816H97.84V54H97.072V46.536ZM106.378 54.24C105.546 54.24 104.754 54.072 104.002 53.736C103.266 53.384 102.618 52.912 102.058 52.32C101.514 51.712 101.082 51.016 100.762 50.232C100.458 49.432 100.306 48.584 100.306 47.688C100.306 46.52 100.57 45.456 101.098 44.496C101.626 43.536 102.338 42.768 103.234 42.192C104.146 41.616 105.162 41.328 106.282 41.328C107.434 41.328 108.458 41.624 109.354 42.216C110.266 42.792 110.994 43.568 111.538 44.544C112.082 45.504 112.354 46.576 112.354 47.76C112.354 47.824 112.354 47.888 112.354 47.952C112.354 48.016 112.346 48.08 112.33 48.144H101.146C101.226 49.152 101.506 50.064 101.986 50.88C102.482 51.696 103.114 52.344 103.882 52.824C104.666 53.304 105.514 53.544 106.426 53.544C107.338 53.544 108.194 53.312 108.994 52.848C109.794 52.368 110.362 51.76 110.698 51.024L111.442 51.216C111.202 51.792 110.826 52.312 110.314 52.776C109.802 53.24 109.202 53.6 108.514 53.856C107.842 54.112 107.13 54.24 106.378 54.24ZM101.122 47.448H111.538C111.474 46.392 111.202 45.464 110.722 44.664C110.258 43.848 109.642 43.208 108.874 42.744C108.106 42.28 107.25 42.048 106.306 42.048C105.378 42.048 104.53 42.28 103.762 42.744C103.01 43.208 102.394 43.848 101.914 44.664C101.45 45.48 101.186 46.408 101.122 47.448ZM120.204 54.24C119.372 54.24 118.588 54.072 117.852 53.736C117.116 53.4 116.476 52.936 115.932 52.344C115.388 51.736 114.964 51.048 114.66 50.28C114.356 49.496 114.204 48.672 114.204 47.808C114.204 46.928 114.356 46.096 114.66 45.312C114.98 44.528 115.412 43.84 115.956 43.248C116.5 42.64 117.14 42.168 117.876 41.832C118.612 41.496 119.388 41.328 120.204 41.328C121.036 41.328 121.812 41.496 122.532 41.832C123.268 42.168 123.908 42.64 124.452 43.248C125.012 43.84 125.444 44.528 125.748 45.312C126.068 46.096 126.228 46.928 126.228 47.808C126.228 48.672 126.076 49.496 125.772 50.28C125.468 51.048 125.036 51.736 124.476 52.344C123.932 52.936 123.292 53.4 122.556 53.736C121.836 54.072 121.052 54.24 120.204 54.24ZM115.02 47.832C115.02 48.872 115.252 49.824 115.716 50.688C116.18 51.536 116.804 52.216 117.588 52.728C118.372 53.224 119.236 53.472 120.18 53.472C121.14 53.472 122.012 53.216 122.796 52.704C123.58 52.192 124.204 51.504 124.668 50.64C125.148 49.76 125.388 48.808 125.388 47.784C125.388 46.744 125.148 45.792 124.668 44.928C124.204 44.064 123.58 43.376 122.796 42.864C122.012 42.352 121.148 42.096 120.204 42.096C119.276 42.096 118.412 42.36 117.612 42.888C116.828 43.4 116.196 44.096 115.716 44.976C115.252 45.84 115.02 46.792 115.02 47.832ZM134.817 42.288C133.681 42.336 132.681 42.704 131.817 43.392C130.969 44.064 130.377 44.984 130.041 46.152V54H129.225V41.52H130.017V44.688C130.449 43.808 131.025 43.088 131.745 42.528C132.481 41.968 133.249 41.64 134.049 41.544C134.209 41.528 134.353 41.52 134.481 41.52C134.625 41.52 134.737 41.52 134.817 41.52V42.288ZM141.696 54.216C140.848 54.216 140.056 54.04 139.32 53.688C138.584 53.32 137.952 52.832 137.424 52.224C136.896 51.6 136.48 50.912 136.176 50.16C135.888 49.392 135.744 48.608 135.744 47.808C135.744 46.96 135.88 46.152 136.152 45.384C136.44 44.6 136.84 43.904 137.352 43.296C137.88 42.688 138.496 42.208 139.2 41.856C139.904 41.504 140.688 41.328 141.552 41.328C142.656 41.328 143.616 41.624 144.432 42.216C145.264 42.808 145.968 43.52 146.544 44.352V41.52H147.312V54.384C147.312 55.488 147.048 56.408 146.52 57.144C145.992 57.896 145.288 58.448 144.408 58.8C143.544 59.168 142.616 59.352 141.624 59.352C140.168 59.352 139.016 59.08 138.168 58.536C137.336 57.992 136.672 57.288 136.176 56.424L136.8 56.088C137.296 56.968 137.976 57.608 138.84 58.008C139.72 58.424 140.648 58.632 141.624 58.632C142.52 58.632 143.336 58.472 144.072 58.152C144.808 57.832 145.392 57.352 145.824 56.712C146.272 56.088 146.496 55.312 146.496 54.384V51.456C145.984 52.272 145.288 52.936 144.408 53.448C143.544 53.96 142.64 54.216 141.696 54.216ZM141.84 53.472C142.4 53.472 142.944 53.368 143.472 53.16C144 52.952 144.488 52.672 144.936 52.32C145.384 51.968 145.744 51.584 146.016 51.168C146.288 50.736 146.448 50.304 146.496 49.872V45.576C146.24 44.888 145.856 44.288 145.344 43.776C144.832 43.248 144.256 42.84 143.616 42.552C142.976 42.248 142.312 42.096 141.624 42.096C140.84 42.096 140.128 42.264 139.488 42.6C138.864 42.936 138.336 43.384 137.904 43.944C137.472 44.488 137.144 45.104 136.92 45.792C136.696 46.464 136.584 47.136 136.584 47.808C136.584 48.56 136.712 49.28 136.968 49.968C137.24 50.64 137.616 51.248 138.096 51.792C138.592 52.32 139.152 52.736 139.776 53.04C140.416 53.328 141.104 53.472 141.84 53.472ZM151.21 54V41.52H152.026V54H151.21ZM151.21 38.496V36.48H152.026V38.496H151.21ZM154.888 50.424C154.888 49.688 155.112 49.056 155.56 48.528C156.008 47.984 156.616 47.56 157.384 47.256C158.152 46.936 159.048 46.776 160.072 46.776C160.744 46.776 161.44 46.84 162.16 46.968C162.88 47.08 163.528 47.24 164.104 47.448V46.128C164.104 44.912 163.744 43.936 163.024 43.2C162.32 42.448 161.368 42.072 160.168 42.072C159.56 42.072 158.912 42.2 158.224 42.456C157.552 42.712 156.864 43.088 156.16 43.584L155.752 42.984C156.568 42.424 157.344 42.008 158.08 41.736C158.816 41.464 159.528 41.328 160.216 41.328C161.656 41.328 162.8 41.768 163.648 42.648C164.496 43.512 164.92 44.688 164.92 46.176V52.752C164.92 52.928 164.952 53.064 165.016 53.16C165.096 53.24 165.208 53.28 165.352 53.28V54C165.24 54 165.144 54 165.064 54C165 54 164.944 53.992 164.896 53.976C164.672 53.928 164.496 53.808 164.368 53.616C164.24 53.424 164.168 53.216 164.152 52.992V51.912C163.576 52.648 162.832 53.224 161.92 53.64C161.008 54.04 160.032 54.24 158.992 54.24C158.224 54.24 157.528 54.072 156.904 53.736C156.28 53.4 155.784 52.944 155.416 52.368C155.064 51.776 154.888 51.128 154.888 50.424ZM163.672 51.504C163.816 51.312 163.92 51.128 163.984 50.952C164.064 50.76 164.104 50.592 164.104 50.448V48.168C163.48 47.928 162.832 47.752 162.16 47.64C161.504 47.512 160.824 47.448 160.12 47.448C158.792 47.448 157.72 47.72 156.904 48.264C156.088 48.792 155.68 49.496 155.68 50.376C155.68 50.952 155.824 51.48 156.112 51.96C156.416 52.44 156.824 52.824 157.336 53.112C157.864 53.4 158.448 53.544 159.088 53.544C160.08 53.544 160.984 53.36 161.8 52.992C162.632 52.608 163.256 52.112 163.672 51.504Z" fill="white"/>
<path d="M64 32C64 49.6731 49.6731 64 32 64C14.3269 64 0 49.6731 0 32C0 14.3269 14.3269 0 32 0C49.6731 0 64 14.3269 64 32Z" fill="#A5FFC6"/>
<path d="M11.0482 29.6807L6.04819 25.1807C6.04819 24.8473 6.14819 24.0807 6.54819 23.6807C7.04819 23.1807 5.04819 22.1807 4.54819 22.1807C4.04819 22.1807 4.54819 20.1807 4.04819 19.1807C3.54819 18.1807 4.04819 21.6807 3.54819 21.1807C3.04819 20.6807 1.04819 25.1807 2.54819 24.1807C4.04819 23.1807 7.04819 30.6807 8.04819 30.6807C8.84819 30.6807 10.3815 34.014 11.0482 35.6807C13.0482 39.1807 17.5482 40.6807 23.0482 42.1807C28.0482 49.1807 30.5482 43.1807 31.5482 44.1807C32.3482 44.9807 37.2149 41.8473 39.5482 40.1807C40.7149 40.014 42.7482 39.8807 41.5482 40.6807C40.0482 41.6807 51.5482 47.1807 50.5482 47.1807C49.7482 47.1807 51.2149 49.1807 52.0482 50.1807L54.0482 49.1807C55.0482 48.6807 59.0482 43.1807 60.5482 41.1807C62.0482 39.1807 60.5482 39.6807 60.5482 39.1807C60.5482 38.7807 58.2149 40.3473 57.0482 41.1807C54.7149 41.1807 49.1482 40.3807 45.5482 37.1807C41.0482 33.1807 42.5482 35.6807 42.0482 35.1807C41.5482 34.6807 30.0482 37.6807 29.0482 37.6807C28.2482 37.6807 27.3815 35.3473 27.0482 34.1807C27.3815 33.8473 28.1482 33.3807 28.5482 34.1807C29.0482 35.1807 31.5482 29.1807 31.5482 28.6807C31.5482 28.1807 32.5482 26.6807 33.5482 26.1807C34.3482 25.7807 35.2149 25.014 35.5482 24.6807C35.8815 24.1807 36.6482 23.1807 37.0482 23.1807C37.5482 23.1807 36.0482 22.1807 36.0482 21.6807C36.0482 21.2807 35.7149 21.1807 35.5482 21.1807C34.5482 21.8473 32.5482 23.0807 32.5482 22.6807C32.5482 22.2807 31.8815 21.514 31.5482 21.1807C31.7149 22.014 31.9482 23.6807 31.5482 23.6807C31.1482 23.6807 30.3815 24.6807 30.0482 25.1807C30.0482 25.514 30.1482 26.3807 30.5482 27.1807C30.9482 27.9807 28.0482 30.514 26.5482 31.6807C23.8815 31.514 18.4482 31.1807 18.0482 31.1807C17.6482 31.1807 17.2149 30.1807 17.0482 29.6807V27.1807C16.5482 27.014 15.6482 26.5807 16.0482 26.1807C16.4482 25.7807 16.5482 25.014 16.5482 24.6807C16.2149 24.1807 15.0482 22.9807 13.0482 22.1807C10.5482 21.1807 10.0482 24.1807 9.54819 24.1807C9.14819 24.1807 10.0482 26.514 10.5482 27.6807C11.2149 28.1807 12.6482 29.2807 13.0482 29.6807C13.4482 30.0807 12.8815 30.1807 12.5482 30.1807L11.0482 29.6807Z" fill="black"/>
<path d="M31.5 38.5C31 36.1667 27.7469 33.9 26.5469 33.5C25.5383 33.1638 25.66 25.8198 26 21.5M28 17.8571C27.8362 17.3657 26.1656 19.3953 26 21.5M26 16.5V21.5M26 21.5L29 18.1429" stroke="black"/>
<path d="M64 31L6 12L64 28V31Z" fill="black"/>
<path d="M26 17L29 18" stroke="black"/>
<path d="M34.9703 36.2321C32.4222 34.7113 27.2686 31.7988 27.0386 32.3156" stroke="black"/>
</svg>
