<svg width="978" height="505" viewBox="0 0 978 505" fill="none" xmlns="http://www.w3.org/2000/svg">
<path d="M363.184 78.6144C363.184 78.7313 363.175 78.7936 363.155 78.8077M363.155 78.8077C362.733 79.0951 357.496 59.3444 326.499 74.4456C293.982 90.2871 313.992 82.7832 289.813 78.6144C265.634 74.4456 241.455 91.1209 237.286 78.6144C233.117 66.1079 209.771 66.9417 212.273 64.4404C214.774 61.9391 208.938 54.4352 207.27 51.9339C205.603 49.4326 193.93 56.9365 193.096 54.4352C192.262 51.9339 184.758 48.5988 182.257 46.9313C179.756 45.2638 155.577 50.2663 156.41 46.9313C157.244 43.5962 140.569 33.591 138.068 29.4222C135.566 25.2534 114.722 25.2534 115.556 21.0845C116.39 16.9157 103.049 15.2482 100.548 14.4144C98.0467 13.5806 85.5403 22.7521 84.7065 21.0845C83.8727 19.417 59.6935 14.4144 52.1896 8.57805C46.1865 3.90896 31.3455 6.63259 24.6753 8.57805L8 42.7625C14.3922 46.6534 27.6769 54.4352 29.6779 54.4352C32.1792 54.4352 56.3584 63.6066 48.0208 78.6144C41.3506 90.6206 51.9117 91.9547 58.026 91.1209C80.5377 81.1157 77.5647 95.3714 94.7117 103.627C117.223 114.466 134.781 99.5067 156.41 121.136C158.912 123.638 170.985 144.851 176.421 161.157C178.088 166.16 169.751 161.157 201.434 166.16C233.117 171.162 217.275 210.349 233.117 234.529C248.958 258.708 213.94 233.695 247.291 290.391C280.642 347.087 259.797 343.752 263.966 349.588C267.301 354.257 256.462 371.544 250.626 379.604L227.281 407.952L242.288 414.622L253.961 411.287L257.296 417.123L272.304 426.295M363.155 78.8077C369.001 83.7458 381.861 93.6222 386.53 93.6222C392.366 93.6222 397.369 78.6144 409.042 84.4508C418.38 89.1199 434.61 98.0689 441.558 101.96C439.891 104.461 437.056 109.797 439.057 111.131C441.558 112.799 467.405 138.646 477.41 137.812C487.416 136.978 526.603 147.817 526.603 151.152C526.603 154.487 535.774 161.157 534.94 162.825C534.106 164.492 569.125 166.16 558.286 176.165C549.614 184.169 545.223 191.173 544.112 193.674C547.725 196.731 556.952 202.679 564.956 202.012C574.961 201.178 573.293 216.186 589.135 196.175C604.977 176.165 599.14 207.014 617.483 190.339C632.157 176.999 628.044 175.331 624.153 176.165L640.829 177.833C655.28 168.939 686.352 160.157 695.023 196.175" stroke="#76FFA8" stroke-width="11"/>
<path d="M721.704 455.477L768.395 418.791L781.735 426.295L794.242 422.96L799.244 432.131L834.262 440.469C834.54 442.136 833.762 445.472 828.426 445.472C823.09 445.472 832.317 455.477 837.597 460.479C852.883 468.817 877.9 478.54 887.623 468.817C889.291 467.149 901.242 463.259 905.966 468.817L922.642 486.326" stroke="#76FFA8" stroke-width="11"/>
<path d="M922.642 486.326C929.59 489.661 942.986 496.831 940.984 498.833C938.983 500.834 944.597 492.44 947.655 487.994L960.161 486.326L971 452.975L913.47 410.453L908.468 387.942L900.964 393.778C897.351 383.217 892.126 361.928 900.13 361.261C908.134 360.594 913.47 362.095 915.138 362.929C923.753 354.591 939.484 337.249 933.481 334.581C925.977 331.245 918.473 325.409 915.138 327.91C912.47 329.911 905.133 319.851 901.798 314.57L883.455 317.905C883.455 315.126 882.621 309.734 879.286 310.401C875.951 311.068 873.449 310.679 872.616 310.401L867.613 308.734L860.943 310.401C860.387 304.565 858.108 293.226 853.439 294.56C847.603 296.227 823.423 271.214 817.587 275.383C812.918 278.718 826.759 242.866 834.262 224.523C826.481 217.019 803.747 204.013 775.065 212.017C776.399 208.015 755.055 187.56 744.216 177.832L736.712 182.001L717.535 169.495L705.862 167.827L694.19 195.341" stroke="#76FFA8" stroke-width="11"/>
<path d="M270.636 424.627L290.647 409.619L305.654 412.954H322.33L339.005 415.456L364.018 424.627L375.691 409.619C375.691 404.617 377.525 394.445 384.862 393.778C392.199 393.111 407.93 395.167 414.878 396.279C414.6 401.56 412.71 411.62 407.374 409.619C402.038 407.618 410.153 412.676 414.878 415.456C416.823 412.954 421.048 408.452 422.382 410.453C424.049 412.954 442.392 428.796 439.057 431.297C436.389 433.298 457.4 443.804 468.239 448.806L457.4 457.978L467.405 460.479C468.517 465.204 471.24 474.486 473.241 473.819C475.743 472.986 495.753 467.149 497.421 470.484C499.088 473.819 510.761 484.658 504.091 487.16C498.755 489.161 515.208 485.214 524.101 482.991L549.948 485.492L559.953 477.154C571.07 475.765 592.637 472.485 589.969 470.484C586.634 467.983 598.306 477.154 602.475 473.819C606.644 470.484 608.312 459.645 611.647 462.147C614.982 464.648 624.987 468.817 624.153 470.484C623.319 472.152 633.325 460.479 635.826 463.814C638.327 467.149 650 472.152 651.667 472.152C653.335 472.152 656.67 463.814 659.171 465.482C661.673 467.149 665.841 470.484 665.008 472.152C664.174 473.819 673.345 458.812 680.015 465.482C685.352 470.818 701.137 467.705 708.363 465.482L698.358 457.978C699.47 455.754 703.361 451.975 710.031 454.643C716.701 457.311 720.592 455.754 721.704 454.643" stroke="#76FFA8" stroke-width="11"/>
</svg>
